<svg width="652" height="300" xmlns="http://www.w3.org/2000/svg" xml:space="preserve" version="1.1">

 <g>
  <title>Layer 1</title>
  <path id="svg_2" fill="#E40712" d="m217.69727,205.57509c0,-3.04678 0.71712,-8.12475 1.79281,-16.92657s7.17123,-34.19167 30.8363,-48.40999c-1.07568,0 -2.86849,-0.67706 -3.94418,-0.67706c-3.22705,0 -12.90822,-0.67706 -26.53356,4.06238c5.37842,-7.78622 25.45788,-20.31189 32.98767,-24.03573c0.71712,-0.67706 1.79281,-1.01559 2.15137,-1.01559c-8.60548,-26.06692 -26.89212,-47.3944 -52.70856,-59.92006c-16.13527,-8.12475 -32.98767,-12.18713 -55.57706,-12.86419l0,0l-45.17877,0c-36.21473,0 -52.70856,-0.67706 -65.61678,-3.04678c-10.75685,-2.70825 -20.43801,-8.12475 -20.43801,-8.12475l-2.86849,-1.69266l0.71712,3.04678c0,1.01559 2.86849,24.03573 31.91199,44.34762c5.37842,4.06238 9.68116,7.78622 9.68116,20.98895l0,123.56397c0,13.20273 -2.86849,16.92657 -9.3226,20.31189c-7.17123,4.06238 -21.5137,11.8486 -21.5137,12.18713l-5.01986,2.70825l117.96679,0c32.98767,0 53.78425,-5.07797 76.01507,-19.29629c4.30274,-2.70825 8.24692,-5.75503 11.47397,-8.12475c-2.15137,-15.91098 0.71712,-30.1293 2.86849,-38.25405c-0.35856,-0.67706 -6.45411,4.40091 -9.68116,11.17154zm-75.29795,2.36972l-25.45788,0l0,-109.68418l25.45788,0c33.34623,0 52.35,19.97335 52.35,54.84209c0,35.20727 -19.00377,54.84209 -52.35,54.84209zm327.00823,27.42105c2.15137,-4.06238 3.22705,-9.14035 3.22705,-14.21832c0,-5.07797 -1.79281,-10.15594 -3.94418,-14.21832l6.45411,1.01559c4.30274,0.67706 12.54966,5.75503 12.54966,13.20273c0,9.14035 -9.68116,13.20273 -18.28664,14.21832zm124.77946,5.07797c-22.58938,14.21832 -43.0274,19.29629 -76.01507,19.29629l-1.07568,0c5.37842,-6.09357 8.24692,-14.21832 8.24692,-22.34307c0,-11.8486 -6.09555,-22.34307 -15.77671,-29.45223l13.9839,0c33.34623,0 52.35,-19.97335 52.35,-54.84209c0,-35.20727 -19.00377,-54.84209 -52.35,-54.84209l-25.45788,0l0,13.87979c-3.94418,-0.67706 -7.17123,-1.01559 -10.75685,-1.01559c-6.09555,0 -12.90822,1.01559 -14.70103,2.03119c7.17123,-5.75503 15.05959,-8.12475 20.43801,-9.14035c-23.66507,-5.07797 -45.89589,7.78622 -49.12295,11.17154c2.86849,-5.75503 8.24692,-10.83301 11.83253,-14.21832c-7.52979,2.70825 -14.70103,6.09357 -20.43801,9.81741l0,-9.14035c0,-13.87979 -3.94418,-17.2651 -9.68116,-20.98895c-29.04349,-19.97335 -31.91199,-43.33202 -31.91199,-44.34762l-0.71712,-3.04678l2.86849,1.69266c0,0 9.68116,6.09357 20.43801,8.12475c12.54966,2.70825 29.76062,3.04678 65.61678,3.04678l45.17877,0l0,0c22.58938,1.01559 39.44178,4.73944 55.57706,12.86419c36.57329,17.94217 58.08699,52.8109 58.08699,93.43467c0,25.05133 -8.60548,49.42559 -23.66507,66.69069c-5.01986,8.12475 -13.26678,15.23391 -22.94795,21.32748zm-114.02261,-41.9779c-8.24692,0 -16.8524,1.69266 -16.8524,1.69266c-1.79281,-1.69266 -12.54966,-9.14035 -17.21096,-10.15594c8.60548,8.80182 6.09555,17.94217 3.94418,20.98895c-1.79281,2.70825 -5.01986,4.06238 -7.52979,4.06238c-2.15137,0 -4.30274,-0.67706 -6.45411,-2.03119l0,-49.76412c2.15137,-2.70825 4.30274,-5.75503 7.17123,-8.12475c6.09555,-6.77063 15.77671,-10.83301 25.45788,-10.83301c6.09555,0 11.83253,1.69266 15.77671,4.73944l3.22705,2.03119l2.86849,-2.70825c1.79281,-1.69266 5.37842,-3.04678 9.3226,-4.73944l0,58.56594c-6.81267,-2.70825 -12.90822,-3.72385 -19.72089,-3.72385zm-10.75685,-69.06041c-20.07945,-2.70825 -50.55719,10.15594 -66.33391,28.43664c3.22705,-12.18713 17.21096,-32.16049 34.42192,-41.30083c0,0 -8.60548,10.15594 -5.01986,11.8486c5.37842,2.70825 19.36233,-18.2807 37.64897,-18.95776c0,0 -13.62534,6.09357 -10.75685,10.83301c2.15137,3.04678 11.47397,-4.06238 26.89212,-4.06238c19.36233,0 36.57329,11.17154 44.82021,19.97335c-13.62534,-3.72385 -38.72466,2.70825 -46.25445,8.80182c-11.47397,-8.12475 -33.34623,-7.10916 -45.89589,6.77063c-15.77671,16.92657 -25.45788,36.56139 -27.96781,42.65496c-5.37842,-4.06238 -10.39829,-7.78622 -13.62534,-10.15594c-2.86849,-2.03119 -5.37842,-3.04678 -8.24692,-4.06238c15.05959,-19.97335 45.17877,-49.42559 80.31781,-50.77971zm-210.11713,-57.21181c-2.15137,-24.03573 9.68116,-37.23846 15.05959,-42.65496c11.83253,-11.8486 27.96781,-18.2807 52.35,-17.2651c37.64897,2.03119 55.93562,26.40545 55.93562,52.47237c0,13.87979 -7.52979,32.16049 -18.28664,43.67055c-0.71712,-0.67706 -1.79281,-1.69266 -2.15137,-2.03119c-7.17123,-6.09357 -17.21096,-13.87979 -23.66507,-23.02014c12.90822,-17.94217 7.52979,-45.70174 -15.77671,-45.70174c-14.70103,0 -26.53356,14.21832 -21.5137,31.48342c-2.15137,7.78622 -3.22705,17.94217 -1.79281,25.38986c-16.8524,-8.12475 -22.23082,-18.95776 -25.45788,-28.43664c-4.30274,8.12475 -7.17123,19.29629 -3.94418,30.1293c0.71712,1.01559 -8.96404,-7.10916 -10.75685,-24.03573zm9.68116,43.33202c-1.79281,5.75503 -23.66507,11.8486 -34.42192,22.00454c16.13527,-3.04678 23.66507,-0.67706 26.53356,5.75503c1.79281,4.73944 -0.71712,10.83301 -1.79281,17.94217c5.37842,-5.75503 23.66507,-17.2651 37.29041,-19.97335c-3.22705,-1.01559 -11.47397,-2.70825 -14.70103,-2.70825c9.68116,-10.83301 31.19486,-14.21832 43.0274,-11.8486c-7.52979,-0.67706 -22.58938,3.72385 -28.68493,8.12475c5.37842,1.01559 10.39829,2.03119 14.70103,3.72385c-7.17123,2.70825 -16.13527,10.83301 -19.36233,19.29629c9.3226,-6.09357 27.96781,-4.73944 31.19486,8.12475c2.15137,8.80182 -4.30274,16.24951 -7.52979,17.94217c2.86849,0.67706 9.3226,0 11.83253,-1.69266c-1.07568,3.72385 -6.45411,9.81741 -10.39829,10.83301c9.68116,0 23.66507,-6.09357 27.60925,-14.89538c0,0 -6.09555,2.03119 -8.60548,-0.67706c-2.86849,-2.70825 1.07568,-13.87979 1.07568,-13.87979s-3.94418,4.73944 -7.17123,2.03119c-3.22705,-3.04678 1.07568,-13.20273 2.86849,-15.23391c-3.22705,-1.01559 -11.83253,-2.03119 -15.77671,-1.69266c10.75685,-3.72385 35.13904,-5.75503 37.64897,-1.01559c2.15137,3.72385 -3.22705,10.83301 -3.22705,10.83301c4.30274,-0.67706 16.8524,0 21.15514,4.73944c4.30274,5.07797 1.79281,11.8486 1.79281,11.8486c9.68116,-4.73944 18.28664,-18.95776 16.13527,-33.17608c-1.07568,3.04678 -5.37842,7.78622 -9.68116,8.80182c0.71712,-4.73944 -3.22705,-7.10916 -6.45411,-8.12475c1.79281,-8.80182 -2.15137,-19.97335 -15.77671,-32.16049c-11.47397,-10.83301 -32.98767,-25.05133 -31.91199,-43.67055c-3.22705,4.06238 -6.09555,15.91098 -2.86849,22.34307c9.3226,10.15594 29.04349,21.32748 34.06336,38.59258c-8.60548,-20.31189 -50.55719,-36.22286 -49.12295,-63.98244c-5.37842,5.07797 -8.60548,25.05133 -4.30274,35.20727c8.24692,4.73944 15.05959,12.18713 16.13527,19.29629c-7.52979,-16.24951 -38.3661,-19.29629 -46.97158,-38.59258c-2.15137,7.10916 -1.07568,15.91098 3.22705,21.32748c0,0 -7.52979,-2.70825 -23.66507,-2.03119c5.73699,1.69266 17.21096,10.83301 16.13527,16.58804zm87.13048,23.35867c-9.3226,0 -11.83253,-6.77063 -13.9839,-13.87979c10.75685,4.40091 13.9839,13.87979 13.9839,13.87979zm117.60822,132.70432c6.45411,5.75503 22.23082,9.81741 30.11918,6.09357c-5.01986,8.12475 -27.60925,19.29629 -48.40582,14.21832c-20.07945,-5.07797 -29.04349,-23.02014 -29.04349,-34.53021c-9.68116,9.14035 -7.17123,23.35867 0,29.45223c-7.52979,-2.03119 -19.36233,-9.81741 -21.5137,-23.35867c-1.79281,-11.8486 5.37842,-25.38986 -7.52979,-36.22286c-7.52979,-6.77063 -20.07945,-15.91098 -27.60925,-21.32748c-16.13527,-11.8486 -10.39829,-20.98895 -13.62534,-27.08251c-2.86849,-5.07797 -9.68116,-7.78622 -13.62534,-12.18713c-4.30274,-4.73944 -3.94418,-11.17154 -1.79281,-14.89538c-0.71712,5.07797 3.22705,9.14035 8.60548,11.17154c6.09555,2.03119 10.75685,0.67706 16.13527,3.04678c6.09555,3.72385 3.22705,12.18713 7.52979,15.91098c3.94418,2.70825 13.9839,-1.01559 22.23082,5.75503c8.60548,6.77063 27.60925,21.32748 35.4976,27.42105c14.70103,11.17154 29.76062,-1.69266 24.74075,-14.89538c15.05959,8.12475 16.8524,31.48342 4.30274,39.60818c11.83253,2.70825 32.98767,-2.70825 32.98767,-18.2807c0,-9.81741 -9.68116,-16.92657 -16.13527,-17.94217c24.38219,-2.03119 45.17877,13.87979 45.17877,34.19167c-0.71712,20.65042 -22.94795,36.89993 -48.04726,33.85314zm-80.31781,-41.63936c0.71712,0.67706 1.07568,1.01559 1.79281,1.69266c-12.90822,25.05133 -37.29041,56.87328 -83.54487,56.87328c-16.8524,0 -31.91199,-5.75503 -42.66884,-13.20273c-3.94418,-2.70825 -7.17123,-5.75503 -9.68116,-9.14035l0,0l0,0c-1.79281,-2.03119 -3.22705,-3.72385 -5.01986,-5.75503c-2.15137,-2.70825 -3.94418,-2.70825 -5.01986,-1.01559c-2.15137,3.04678 1.79281,12.86419 1.79281,12.86419c-36.57329,-32.49902 -17.92808,-80.23195 -17.21096,-82.26314c2.15137,-6.09357 0,-7.10916 -2.15137,-6.09357c-3.22705,1.01559 -7.17123,6.09357 -7.17123,6.09357c2.86849,-29.1137 31.19486,-46.71734 31.19486,-46.71734l0.71712,0.67706c3.22705,4.73944 -1.79281,10.15594 -2.15137,28.43664c5.37842,-7.10916 26.53356,-20.98895 38.3661,-25.05133c-3.94418,4.73944 -7.17123,11.17154 -7.17123,20.98895c0,0 8.60548,-9.14035 19.36233,-9.14035c2.86849,0 5.37842,0.67706 7.52979,1.69266c-40.87603,37.57699 -23.66507,84.29432 10.75685,84.29432c19.36233,0 38.72466,-20.31189 46.97158,-34.19167c6.09555,5.07797 16.13527,13.20273 23.30651,18.95776z" class="st0"/>
 </g>
</svg>